<?xml version="1.0" encoding="UTF-8" standalone="no"?>
<!-- Created with Inkscape (http://www.inkscape.org/) -->

<svg
   version="1.1"
   id="svg3377"
   width="132.79085"
   height="132.60393"
   viewBox="0 0 132.79084 132.60392"
   sodipodi:docname="k3.svg"
   inkscape:version="1.2.2 (732a01da63, 2022-12-09, custom)"
   xmlns:inkscape="http://www.inkscape.org/namespaces/inkscape"
   xmlns:sodipodi="http://sodipodi.sourceforge.net/DTD/sodipodi-0.dtd"
   xmlns="http://www.w3.org/2000/svg"
   xmlns:svg="http://www.w3.org/2000/svg">
  <defs
     id="defs3381" />
  <sodipodi:namedview
     id="namedview3379"
     pagecolor="#ffffff"
     bordercolor="#000000"
     borderopacity="0.25"
     inkscape:showpageshadow="2"
     inkscape:pageopacity="0.0"
     inkscape:pagecheckerboard="0"
     inkscape:deskcolor="#d1d1d1"
     showgrid="false"
     inkscape:zoom="5.840858"
     inkscape:cx="69.852751"
     inkscape:cy="68.825505"
     inkscape:window-width="1920"
     inkscape:window-height="1031"
     inkscape:window-x="0"
     inkscape:window-y="25"
     inkscape:window-maximized="1"
     inkscape:current-layer="layer2" />
  <g
     inkscape:groupmode="layer"
     id="layer2"
     inkscape:label="Layer 1"
     transform="translate(-3.5290788,-2.0636799)"
     style="display:inline">
    <path
       style="fill:#000000;stroke-width:0.32"
       d="M 31.817871,134.30409 C 31.566042,134.16334 31.36,134.14498 31.36,134.26327 c 0,0.1183 -0.216,0.0358 -0.48,-0.18328 -0.264,-0.2191 -0.48,-0.29637 -0.48,-0.17171 0,0.60195 -2.286805,-2.22231 -2.446688,-3.02173 -0.123975,-0.61988 -0.485995,-1.04329 -1.114674,-1.30369 -1.200448,-0.49724 -3.671193,-2.93057 -3.762159,-3.70519 -0.0386,-0.32872 -0.06515,-1.55471 -0.059,-2.72441 0.01065,-2.02455 -0.02858,-2.13671 -0.816476,-2.33446 -0.455217,-0.11425 -1.163698,-0.42791 -1.574402,-0.69701 -0.773657,-0.50692 -2.006628,-2.58249 -2.16999,-3.65293 -0.0514,-0.33681 -0.193166,-0.71209 -0.315034,-0.83396 -0.323294,-0.32329 -0.270787,-2.18382 0.08828,-3.12824 0.253767,-0.66746 0.199645,-0.87399 -0.298963,-1.14083 -0.334853,-0.17921 -0.85546,-0.32584 -1.156904,-0.32584 -1.068183,0 -3.27747,-2.20664 -4.310807,-4.30565 -0.996657,-2.02449 -1.004159,-2.07569 -0.629567,-4.29653 0.31713,-1.88016 0.584064,-2.480457 1.632744,-3.67182 1.645852,-1.869786 1.719563,-3.15313 0.213635,-3.719469 -5.4839312,-2.062364 -5.84,-2.506633 -5.84,-7.286585 0,-1.804032 -0.094376,-3.280032 -0.2097235,-3.28 -0.3895171,1.06e-4 -2.9860026,-2.31158 -3.548168,-3.158982 C 3.6832,80.719642 3.5256189,79.841658 3.5291363,78.239994 3.5351811,75.487726 4.2277219,73.875985 6.0728746,72.319995 8.4319165,70.330648 8.8734432,69.777358 9.0703891,68.563723 9.2323549,67.565643 9.1395222,67.265941 8.5010349,66.725602 7.6915642,66.040562 6.195248,63.807941 5.5237491,62.283256 4.6358464,60.267215 5.3670614,55.07711 6.7500083,53.579372 7.0855037,53.216028 7.36,52.779398 7.36,52.609078 c 0,-0.170317 0.6468419,-0.881037 1.4374269,-1.579376 0.9583417,-0.846522 1.4382841,-1.529331 1.4400001,-2.048675 0.0062,-1.882989 2.543047,-5.309139 4.161887,-5.620899 0.414507,-0.07983 0.856133,-0.31096 0.981391,-0.513632 0.125257,-0.202672 0.387841,-0.269545 0.583518,-0.148611 0.195677,0.120934 0.515151,0.121386 0.709941,9.6e-4 0.307923,-0.190307 3.377905,-0.282115 4.045836,-0.120992 0.132,0.03184 0.348,0.04084 0.48,0.02 0.132,-0.02083 0.24,0.09336 0.24,0.253792 0,0.160426 0.235447,0.257126 0.523216,0.214893 0.475939,-0.06985 1.450096,-1.231869 2.851344,-3.401206 0.963206,-1.491184 2.607475,-2.348803 4.766851,-2.486301 1.498171,-0.0954 2.10786,-0.0041 2.483959,0.372013 0.27414,0.274141 0.587584,0.409296 0.696534,0.300342 0.108954,-0.10895 0.198096,-0.0216 0.198096,0.194125 0,0.215722 0.145018,0.302592 0.322259,0.19305 0.177245,-0.10954 0.40865,0.02595 0.514237,0.301116 0.275264,0.717325 0.861101,0.618266 1.71424,-0.289856 0.408262,-0.434576 0.865363,-0.714076 1.015779,-0.621113 0.150416,0.093 0.273485,0.0081 0.273485,-0.188711 0,-0.196774 0.144,-0.268774 0.32,-0.16 0.176,0.108775 0.32,0.06961 0.32,-0.08704 0,-0.156646 0.374646,-0.485318 0.832544,-0.730377 0.738672,-0.395325 0.813664,-0.590851 0.665094,-1.734074 C 38.796941,33.64587 38.429555,33.121873 36.638253,31.448945 35.46569,30.353866 34.410397,29.484459 34.293158,29.516929 34.175923,29.5494 33.763798,29.40048 33.377328,29.185997 32.260045,28.565925 26.169769,28.298896 24.923021,28.815315 23.631546,29.350262 15.2,29.32657 15.2,28.787995 15.2,28.754461 14.815197,28.680932 14.344882,28.624596 12.603536,28.416012 8.7981126,25.843433 9.0932438,25.074333 9.1804733,24.847017 9.0729754,24.739527 8.8456512,24.82676 8.6083254,24.91783 8.1238624,24.354543 7.6619482,23.450463 7.0128662,22.18005 6.8805562,21.457825 6.883273,19.199999 c 0.00324,-2.688248 0.020045,-2.745082 1.44,-4.86856 0.7902,-1.181708 1.6212464,-2.153708 1.84677,-2.16 0.225524,-0.0063 0.485897,-0.209111 0.578607,-0.45071 0.09271,-0.241598 0.899501,-0.837096 1.79287,-1.323327 1.487629,-0.8096702 1.81591,-0.8670228 3.901393,-0.6815998 3.055427,0.2716624 4.324139,0.7689558 5.898163,2.3118858 2.069855,2.028968 2.608471,3.816641 2.091829,6.942807 -0.147872,0.894766 -0.668607,1.687784 -1.996478,3.040401 -1.726981,1.759167 -1.867557,1.833693 -3.636427,1.927858 -1.242557,0.06615 -1.84,-0.02303 -1.84,-0.274639 0,-0.204924 -0.216,-0.289703 -0.48,-0.188396 -0.264,0.101306 -0.48,0.02071 -0.48,-0.179097 0,-0.19981 -0.08914,-0.274147 -0.198095,-0.165195 -0.25745,0.257449 -1.184284,-0.672126 -1.332469,-1.336409 -0.210564,-0.943913 -0.297887,-2.595019 -0.137244,-2.595019 0.08719,0 0.548426,0.408 1.024979,0.906666 0.917139,0.959698 1.372423,1.072847 3.2577,0.809613 0.974385,-0.13605 1.267025,-0.364743 1.714899,-1.340161 0.297015,-0.646865 0.725757,-1.565044 0.95276,-2.040397 0.63437,-1.3284 -0.438017,-3.27367 -2.263036,-4.105063 -1.660226,-0.75632 -2.551078,-0.784764 -4.730244,-0.151035 -2.051288,0.596542 -3.302315,2.048531 -3.796105,4.405908 -0.771082,3.681175 0.632805,6.423881 4.070911,7.953139 1.72449,0.767047 6.555944,1.271184 6.555944,0.684078 0,-0.708683 9.53076,-1.747539 10.321247,-1.12502 0.320917,0.252727 1.559748,0.683077 2.478753,0.861081 0.088,0.01704 0.34,0.145284 0.56,0.284976 0.22,0.139692 0.4,0.163201 0.4,0.05224 0,-0.110958 0.226285,0.02454 0.502858,0.301115 0.276569,0.276571 0.780569,0.502857 1.12,0.502857 0.339427,0 0.617142,0.152499 0.617142,0.338885 0,0.186387 0.145018,0.24926 0.322259,0.139718 0.177245,-0.109542 0.40865,0.02596 0.514237,0.301115 0.105587,0.275155 0.367469,0.500282 0.581958,0.500282 0.214493,0 0.728186,0.36 1.141546,0.8 0.41336,0.44 0.885549,0.8 1.049309,0.8 0.365328,0 0.08445,-9.307483 -0.359437,-11.910787 C 40.026998,16.158335 38.43384,12.757612 37.140934,11.276784 36.602205,10.65975 35.675165,10.144467 34.477306,9.7962406 31.978004,9.0696736 32.042835,7.9999994 34.586173,7.9999994 35.099776,7.9999994 35.52,7.8475009 35.52,7.661114 35.52,7.4747272 35.664419,7.4114856 35.840934,7.5205771 36.133898,7.7016379 39.30471,6.2091848 39.68,5.7135894 40.022771,5.260935 43.641869,3.8418554 44.594221,3.786681 c 0.553177,-0.032049 1.14239,-0.1313443 1.309363,-0.2206576 0.539472,-0.2885654 1.977776,-0.1728112 2.972528,0.2392285 1.255405,0.5200057 1.4756,1.7914607 1.039158,6.0003512 -0.314812,3.0359729 -0.463523,4.0753929 -1.458521,10.1943959 -0.257571,1.583999 -0.597738,3.887999 -0.755923,5.119999 -0.158189,1.232 -0.428423,2.78 -0.600519,3.44 -0.172099,0.66 -0.253891,1.2 -0.18176,1.2 0.07213,0 0.893779,-0.430402 1.825882,-0.956449 2.534896,-1.430605 5.151174,-2.226161 8.033091,-2.442695 2.199658,-0.165272 3.056842,-0.06553 5.78248,0.672871 1.76,0.476798 4.136,1.338268 5.28,1.914376 4.429936,2.230875 8.27001,3.445305 11.44,3.617922 1.888224,0.102819 2.96,0.04401 2.96,-0.162422 0,-0.177981 -0.396,-0.404236 -0.88,-0.502787 -0.484,-0.09855 -1.466941,-0.72855 -2.18431,-1.4 -0.71737,-0.671448 -1.58137,-1.453209 -1.92,-1.737245 -0.609933,-0.511602 -2.470522,-2.639057 -3.566887,-4.078492 -0.312841,-0.410735 -1.118406,-1.30712 -1.790141,-1.991967 -0.671737,-0.684846 -1.140691,-1.375663 -1.042124,-1.535148 0.09857,-0.159486 -0.04022,-0.815163 -0.308426,-1.457061 -0.441251,-1.05606 -0.4388,-1.215929 0.02576,-1.680496 0.331456,-0.331456 0.394486,-0.586908 0.177846,-0.720799 -0.18456,-0.114064 -0.379366,-0.489138 -0.432902,-0.833498 -0.05354,-0.34436 -0.207056,-0.80188 -0.341158,-1.016711 -0.1341,-0.214832 -0.01581,-0.831536 0.262883,-1.370454 0.465283,-0.89976 0.461523,-1.140863 -0.04601,-2.949701 C 69.785334,9.6708816 69.74025,9.1265805 70.020906,9.0330288 70.229411,8.9635293 70.4,8.6929623 70.4,8.4317687 c 0,-0.3490621 0.190781,-0.4123785 0.72,-0.2389533 0.396,0.1297693 1.296,0.2545974 2,0.2773958 0.704,0.0228 1.585066,0.2092608 1.957926,0.414361 0.372858,0.2051001 0.768858,0.281976 0.88,0.1708352 C 76.069066,8.9442662 76.16,9.0163728 76.16,9.2156445 c 0,0.1992713 0.708218,0.4562598 1.573818,0.5710857 1.213104,0.1609241 1.814233,0.4568218 2.622774,1.2910218 0.576925,0.595236 1.344707,1.086827 1.706182,1.092424 0.361476,0.0056 0.936749,0.221598 1.278388,0.48 0.341638,0.258403 0.489596,0.469823 0.328796,0.469823 -0.1608,0 0.01165,0.212931 0.383197,0.47318 1.234551,0.864712 2.883917,3.753954 3.109399,5.44682 0.404041,3.033464 0.581497,3.840597 0.885881,4.029324 0.167943,0.104129 0.261747,0.374129 0.208458,0.6 -0.05329,0.225871 0.08856,0.478493 0.315222,0.561381 0.305917,0.11187 0.373642,-0.166439 0.262813,-1.08 -0.08212,-0.676888 -0.16929,-1.230706 -0.193715,-1.230706 -0.02442,0 -0.107392,-0.504 -0.184375,-1.119999 -0.07698,-0.616 -0.224598,-1.336 -0.328035,-1.6 -0.294419,-0.751427 -0.318483,-3.840457 -0.02992,-3.840216 0.142387,1.19e-4 0.183296,-0.122091 0.09091,-0.271576 -0.09239,-0.149486 0.271571,-0.869486 0.808797,-1.6 0.537225,-0.730514 0.856317,-1.330413 0.709091,-1.333108 -0.147226,-0.0027 -0.123453,-0.110695 0.05283,-0.24 0.176281,-0.129305 0.520931,-0.624217 0.765888,-1.099804 0.244956,-0.475587 0.532729,-0.8545344 0.639491,-0.8421053 0.703632,0.081918 1.314112,-0.105167 1.314112,-0.4027171 0,-0.5642256 1.094627,-1.7922639 1.482355,-1.6630213 0.195722,0.06524 0.880877,-0.3912474 1.522573,-1.0144166 0.641696,-0.6231692 1.308099,-1.1330351 1.480896,-1.1330351 0.1728,0 0.325549,-0.252 0.339443,-0.56 0.01491,-0.3302684 0.09113,-0.3969548 0.185814,-0.1625568 0.190048,0.4704621 1.097517,0.080404 2.320522,-0.9974312 0.424375,-0.3740064 0.651625,-0.4640119 0.504995,-0.2000119 -0.17224,0.3100938 -0.0227,0.2661434 0.42239,-0.1241638 0.58696,-0.5146816 0.76611,-0.540168 1.20963,-0.172079 0.44057,0.3656361 0.57683,0.3559734 0.88601,-0.06283 0.20095,-0.2722032 0.76137,-0.5935111 1.24537,-0.7140176 0.484,-0.1205065 0.88,-0.3654256 0.88,-0.5442648 0,-0.2160224 0.21171,-0.2118606 0.63074,0.012399 0.49911,0.2671156 0.58925,0.5450153 0.43193,1.3316338 -0.14779,0.7389356 -0.0625,1.0703619 0.33232,1.2913129 0.37912,0.212167 0.47576,0.5440639 0.33763,1.1596249 -0.50113,2.2333387 -0.53483,2.7109636 -0.17561,2.488954 0.19964,-0.1233875 0.38099,-0.071842 0.40299,0.1145447 0.16342,1.3845372 0.0928,2.4526352 -0.17451,2.6380742 -0.20144,0.139761 -0.16265,0.505567 0.10704,1.009487 0.23263,0.434664 0.32156,0.954362 0.19763,1.154883 -0.12393,0.200522 -0.0183,0.682253 0.23462,1.070513 0.50396,0.773486 0.46624,1.908921 -0.0694,2.08745 -0.18668,0.06223 -0.25802,0.244841 -0.15854,0.405809 0.0995,0.160968 0.0199,0.292669 -0.17689,0.292669 -0.19677,0 -0.26814,0.145017 -0.1586,0.32226 0.10954,0.177243 -0.037,0.412882 -0.32563,0.523643 -0.28864,0.11076 -0.6542,0.541743 -0.81236,0.95774 -0.15817,0.415996 -0.50713,0.756357 -0.77549,0.756357 -0.26836,0 -0.48792,0.135052 -0.48792,0.300116 0,0.165064 -0.64344,0.762198 -1.42986,1.326964 -0.78642,0.564766 -1.36401,1.133398 -1.28352,1.263626 0.0805,0.130227 -0.10408,0.433093 -0.41014,0.673035 -0.51527,0.403953 -0.52093,0.388866 -0.0765,-0.203742 0.44517,-0.593557 0.43936,-0.60813 -0.08,-0.200817 -0.68604,0.538026 -0.73345,1.320817 -0.08,1.320817 0.264,0 0.48,-0.144 0.48,-0.32 0,-0.176 0.12343,-0.284 0.27429,-0.24 0.15086,0.044 1.30063,-0.870233 2.55503,-2.03163 1.25442,-1.161397 2.35499,-2.037397 2.44572,-1.946666 0.0907,0.09073 0.16496,-0.0082 0.16496,-0.219742 0,-0.382056 2.13455,-1.432396 3.78068,-1.860344 1.1534,-0.299853 6.37066,-0.206568 9.57932,0.171279 0.22,0.02591 0.70696,0.354059 1.08212,0.729227 0.44324,0.443233 1.11565,0.693491 1.92,0.714582 0.68084,0.01785 1.23788,0.142897 1.23788,0.277876 0,0.134981 0.20783,0.245419 0.46186,0.245419 0.25402,0 0.66583,0.291225 0.91514,0.647168 0.28489,0.406728 0.64829,0.572341 0.97815,0.445763 0.30214,-0.115944 0.52485,-0.04256 0.52485,0.172947 0,0.205893 0.252,0.338737 0.56,0.29521 1.13309,-0.160131 2.55485,0.397494 2.89023,1.13357 0.27089,0.594538 0.76317,0.823329 2.46069,1.143628 2.2408,0.422808 3.04908,0.936118 3.04908,1.936353 0,0.620526 -1.66708,1.731619 -2.03943,1.359264 -0.11031,-0.110313 -0.20057,-0.03709 -0.20057,0.16272 0,0.199809 -0.21783,0.279699 -0.48407,0.177533 -0.26625,-0.102167 -0.69194,-0.01325 -0.94599,0.197592 -0.25405,0.210841 -0.60226,0.296603 -0.77381,0.19058 -0.17155,-0.106023 -0.40236,-0.04642 -0.5129,0.132451 -0.11055,0.178871 0.0235,0.32522 0.29788,0.32522 0.82354,0 0.57214,0.513163 -0.80671,1.646689 -0.71809,0.590321 -1.52645,1.308947 -1.79637,1.596947 -0.26991,0.288 -0.80675,0.863999 -1.19297,1.279999 -0.38622,0.416 -0.98185,0.936438 -1.32364,1.156525 -2.54144,1.636543 -4.39244,2.57087 -5.4252,2.738463 -0.6644,0.107818 -1.5153,0.48473 -1.89089,0.837584 -0.61279,0.575684 -1.19122,0.650816 -5.63412,0.731792 -4.82068,0.08787 -4.99703,0.06752 -6.68935,-0.771827 -0.95598,-0.474141 -1.85598,-0.789248 -2,-0.700237 -0.14402,0.08901 -0.26186,-0.0061 -0.26186,-0.211286 0,-0.205216 -0.216,-0.290237 -0.48,-0.188928 -0.264,0.101306 -0.48,0.04471 -0.48,-0.125763 0,-0.170477 -0.264,-0.309959 -0.58667,-0.309959 -0.51357,0 -0.88758,0.920532 -0.4,0.984484 0.10267,0.01347 0.47467,0.09257 0.82667,0.175782 0.352,0.08322 0.856,0.192554 1.12,0.242976 0.264,0.05042 0.94362,0.271882 1.51027,0.492131 0.56665,0.22025 1.11035,0.384464 1.20822,0.364922 0.19657,-0.03925 1.76151,1.58264 1.76151,1.825616 0,0.08385 -0.252,-0.03729 -0.56,-0.269204 -0.51934,-0.391043 -0.52277,-0.380716 -0.0472,0.142208 0.28205,0.310125 0.71405,0.594669 0.96,0.63232 0.69084,0.105754 1.87762,1.245347 1.66134,1.59529 -0.10617,0.171798 -0.0508,0.22448 0.12294,0.117069 0.39067,-0.241444 2.64912,1.254246 2.69975,1.787942 0.0202,0.213654 0.0166,0.608377 -0.008,0.877158 -0.0247,0.268784 0.45899,1.038803 1.07484,1.711159 0.99455,1.085795 1.06616,1.276044 0.64048,1.701721 -0.42568,0.42568 -0.37611,0.669699 0.44335,2.182685 0.93857,1.73288 0.89604,2.66511 -0.10407,2.281331 -0.29765,-0.114218 -0.70231,-0.10808 -0.89925,0.01363 -0.19694,0.121715 -0.97165,0.183571 -1.72156,0.137456 -1.05863,-0.0651 -1.60779,0.102499 -2.45621,0.749622 -1.00366,0.765526 -1.2066,0.80584 -2.48957,0.49455 -0.76826,-0.186403 -1.65454,-0.399686 -1.96951,-0.473955 -0.31498,-0.07427 -1.35898,-0.166851 -2.32,-0.205731 -0.96103,-0.03887 -1.74732,-0.191264 -1.74732,-0.338637 0,-0.147373 -0.27631,-0.0954 -0.61402,0.115507 -0.48924,0.305543 -0.72931,0.289837 -1.18142,-0.07729 -0.49751,-0.403987 -0.53378,-0.401616 -0.29439,0.01926 0.15017,0.264 -0.0742,0.17433 -0.498565,-0.19927 -0.424381,-0.373597 -0.9156,-0.632781 -1.0916,-0.575959 -0.176,0.05682 -0.752,-0.448339 -1.28,-1.122582 -0.528,-0.674243 -1.066352,-1.163584 -1.196336,-1.087424 -0.129984,0.07616 -0.150576,-0.08501 -0.04576,-0.358144 0.122198,-0.318441 0.01091,-0.496621 -0.310176,-0.496621 -0.599939,0 -1.825146,-2.021155 -2.777706,-4.582223 -0.521577,-1.40232 -0.814621,-1.815411 -1.186589,-1.672672 -0.385811,0.148048 -0.415097,0.09453 -0.133772,-0.244445 0.273408,-0.329437 0.254473,-0.433994 -0.0786,-0.433994 -0.53784,0 -0.484006,0.511255 0.160612,1.52528 1.216848,1.914179 1.975587,4.061021 2.024416,5.728054 0.06215,2.121911 -0.05552,2.56 -0.687632,2.56 -0.34272,0 -0.438637,0.232426 -0.330138,0.8 0.08411,0.44 0.05954,0.8 -0.0546,0.8 -0.114141,0 -0.230183,0.300778 -0.257876,0.668394 -0.02768,0.367616 -0.489024,1.087615 -1.025184,1.599999 -0.53616,0.512384 -0.88183,0.931607 -0.768153,0.931607 0.113677,0 -0.05395,0.288 -0.372509,0.64 -0.318557,0.352 -0.474589,0.64 -0.346739,0.64 0.127849,0 0.01645,0.216 -0.247546,0.48 -0.264,0.264 -0.622541,0.48 -0.796758,0.48 -0.174218,0 -0.607197,0.469942 -0.962179,1.044313 -1.638269,2.650774 -4.84912,4.054121 -5.108964,2.232944 -0.06786,-0.475584 -0.39038,-0.780125 -0.96,-0.90647 -1.85735,-0.411978 -1.977811,-0.493709 -1.993184,-1.352352 -0.0084,-0.472138 -0.260454,-1.302355 -0.56,-1.844925 -1.541398,-2.791942 -2.038716,-4.037401 -2.22552,-5.57351 -0.07491,-0.616 -0.28776,-1.303337 -0.472995,-1.527417 -0.461062,-0.557751 -0.676841,-5.094915 -0.291078,-6.12055 0.172118,-0.45762 0.391609,-1.192032 0.487763,-1.632032 0.09615,-0.44 0.907971,-2.075885 1.804042,-3.635299 0.896073,-1.559418 1.584425,-2.880099 1.529673,-2.934854 -0.05476,-0.05475 -1.39487,-0.180288 -2.978035,-0.278967 -3.264698,-0.203488 -4.083926,-0.411513 -6.55848,-1.665392 -2.970032,-1.50494 -6.347872,-2.676399 -7.733469,-2.682025 -0.469411,-0.0019 -1.515283,-0.287149 -2.324163,-0.633875 -2.658,-1.139351 -6.214314,-0.75283 -9.650262,1.048848 C 49.948301,33.29625 47.04,36.051364 47.04,36.501316 c 0,0.626803 0.0729,0.776224 0.342445,0.701865 0.153145,-0.04225 0.433971,0.213786 0.624057,0.568964 0.190084,0.355177 0.504634,0.547494 0.698996,0.427372 0.206243,-0.127465 0.263299,-0.07264 0.13703,0.131671 -0.132029,0.213622 0.0358,0.331081 0.430557,0.301344 0.355801,-0.02678 0.646915,-0.162087 0.646915,-0.300631 0,-0.138547 0.108,-0.221312 0.24,-0.18392 0.132,0.03739 0.6,-0.135683 1.04,-0.384611 1.183024,-0.669286 1.537949,-0.735955 4.093059,-0.768851 1.621626,-0.02086 2.413168,0.09959 2.595776,0.395053 0.144496,0.233798 0.354621,0.41279 0.466941,0.397757 0.627658,-0.084 0.924867,0.06303 1.954026,0.966639 1.280553,1.124343 2.281772,3.88816 1.971148,5.44127 -0.101721,0.508618 -0.08055,0.9309 0.04705,0.938404 0.1276,0.0075 0.88,0.600176 1.672,1.317049 0.792,0.71687 1.224,1.20376 0.96,1.081974 -0.264,-0.121785 -0.12,0.09378 0.32,0.479024 0.44,0.385252 0.781251,0.792221 0.758336,0.904381 -0.02291,0.11216 0.0957,0.563927 0.263597,1.003926 0.167891,0.44 0.234605,1.232 0.148246,1.76 -0.118653,0.725469 0.106141,1.350887 0.920138,2.56 1.163024,1.727552 1.454809,3.667917 0.980195,6.518217 -0.245005,1.471383 -0.311059,1.648365 -1.407267,3.770512 l -0.686359,1.328726 0.851437,0.557885 c 1.305975,0.855709 2.436496,2.332675 3.026877,3.954461 0.650448,1.786793 0.69063,2.730047 0.229181,5.379887 -0.333344,1.914199 -0.490061,2.177626 -2.502016,4.205613 l -2.1464,2.1635 0.397673,1.100599 c 0.21872,0.605328 0.40809,2.252598 0.42082,3.660598 0.02512,2.777721 -0.664544,4.545651 -1.899191,4.868518 -0.336928,0.08811 -0.900838,0.648736 -1.253139,1.24584 -0.352298,0.597104 -0.897402,1.087846 -1.211334,1.090541 -1.113437,0.0096 -1.42593,0.448416 -1.040733,1.461564 0.912614,2.400352 0.563181,7.495353 -0.574285,8.373533 -0.284954,0.22 -0.432976,0.4 -0.328938,0.4 0.104039,0 -0.314838,0.504 -0.930838,1.12 -0.616,0.616 -1.2496,1.12 -1.408,1.12 -0.1584,0 -0.288,0.13948 -0.288,0.30996 0,0.17047 -0.216,0.22707 -0.48,0.12576 -0.264,-0.1013 -0.48,-0.0248 -0.48,0.17005 0,0.19483 -0.108,0.33497 -0.24,0.31142 -0.479046,-0.0855 -2.32,0.44876 -2.32,0.67322 0,0.12672 0.27505,0.47932 0.611219,0.78355 0.336173,0.30423 0.69513,0.88746 0.797683,1.29606 0.201492,0.80281 -0.526361,2.86539 -1.330364,3.76998 -0.273751,0.308 -0.428538,0.56 -0.343968,0.56 0.08457,0 -0.529351,0.72 -1.364266,1.6 -0.834912,0.88 -1.673786,1.6 -1.864163,1.6 -0.190378,0 -0.346141,0.1525 -0.346141,0.33889 0,0.18639 -0.128666,0.25936 -0.285926,0.16217 -0.157261,-0.0972 -0.913261,0.0469 -1.68,0.32025 -0.76674,0.27333 -1.790074,0.51026 -2.274074,0.52653 -0.794278,0.0267 -0.92809,0.14531 -0.858691,0.7613 0.01171,0.10403 -0.240282,0.38745 -0.56,0.62982 -0.319719,0.24238 -0.478109,0.44527 -0.351975,0.45087 0.414512,0.0184 -2.000332,2.25017 -2.434752,2.25017 -0.345856,0 -0.333097,0.43543 0.06918,2.36063 0.458675,2.19511 0.453446,2.46488 -0.07459,3.84753 -1.125882,2.94808 -4.836643,5.42921 -7.852384,5.25036 -0.913574,-0.0542 -1.867085,-0.21367 -2.118913,-0.35442 z"
       id="path3387" />
    <path
       id="path3486"
       style="fill:#008080;stroke-width:0.32"
       d="M 46.763454 4.2824299 C 44.981216 4.2811376 42.137598 5.3030874 38.427516 7.2941487 C 35.445989 8.8942211 35.425832 8.9127536 36.507594 9.0890705 C 39.224689 9.5319311 40.73247 9.5005496 43.618923 8.9386799 C 45.496181 8.5732579 48.010045 7.4592395 48.544704 6.7570393 C 49.159763 5.9492392 49.031245 5.1804436 48.185329 4.6261799 C 47.834639 4.396399 47.357533 4.2828607 46.763454 4.2824299 z M 49.159938 7.6808674 C 49.089188 7.6808674 48.084459 8.1238446 46.927516 8.6652424 C 45.264657 9.4433888 44.101982 9.7175077 41.372829 9.9796955 C 39.474012 10.162114 37.872901 10.355866 37.814235 10.409383 C 37.755565 10.462903 37.996109 10.796336 38.349391 11.149617 C 39.353684 12.153911 40.832136 15.635004 41.224391 17.921102 C 41.784327 21.184449 42.250875 27.98391 42.031032 29.669149 C 41.654315 32.556926 41.475832 32.607413 39.32986 30.421102 C 35.391864 26.409075 28.489217 24.756148 23.490016 26.628133 C 18.006823 28.681352 10.987968 26.265728 9.6716569 21.872274 C 8.0822428 16.567283 11.273948 12.159383 16.706813 12.159383 C 18.68402 12.159383 20.123966 12.763853 21.202907 14.046102 C 22.545621 15.641825 22.64574 17.009922 21.585719 19.227742 C 20.524005 21.449104 19.521716 21.948559 16.700954 21.65743 C 14.942895 21.475982 14.935682 21.478095 15.562282 22.104696 C 15.947998 22.49041 16.836317 22.810422 17.853298 22.930867 C 19.296823 23.101831 19.680275 23.019352 20.779079 22.292196 C 23.303339 20.621719 24.140823 16.907862 22.589626 14.260946 C 21.179834 11.855318 19.677687 11.039799 15.958766 10.661336 C 14.38826 10.50151 13.944872 10.593392 12.495876 11.382039 C 10.627019 12.399198 9.2647059 13.948279 8.2771257 16.180867 C 6.9220058 19.24434 8.1658462 23.378967 11.206813 25.925008 C 14.045331 28.30155 19.449167 29.130758 23.679469 27.839071 C 28.934854 26.234382 34.656868 27.804467 38.372829 31.870321 C 39.539558 33.146909 39.987654 33.911126 40.060329 34.739461 L 40.159938 35.866414 L 42.683376 36.003133 C 44.070859 36.077833 45.282889 36.215928 45.376735 36.309774 C 45.708969 36.642007 46.040024 36.471624 46.230251 35.872274 C 46.801626 34.072029 51.14704 31.175862 54.400173 30.426961 C 58.325113 29.523405 61.140289 30.089467 69.759548 33.512899 C 74.684717 35.469098 75.211432 35.610088 77.599391 35.622274 C 80.039226 35.634724 82.560329 35.109331 82.560329 34.587117 C 82.560329 34.453019 82.919157 34.178222 83.359157 33.977742 C 84.863449 33.292341 84.161473 33.046309 82.105251 33.538289 C 80.227439 33.987588 79.813331 33.98307 77.271266 33.483602 C 74.39251 32.917976 69.318785 31.050483 67.734157 29.973836 C 67.23545 29.635 65.192699 28.887341 63.195094 28.311727 C 59.750189 27.31907 59.399512 27.277513 56.404079 27.512899 C 53.650389 27.729288 52.895252 27.927916 50.511501 29.065633 C 49.007886 29.78328 47.309821 30.809001 46.73611 31.34493 C 46.162395 31.880858 45.635577 32.319539 45.566188 32.319539 C 45.20024 32.319539 45.537984 29.52315 46.261501 26.559774 C 46.712703 24.711775 47.151791 22.552945 47.238063 21.760946 C 47.324343 20.968947 47.667754 18.808162 48.001735 16.960164 C 48.335712 15.112166 48.697651 12.66471 48.804469 11.520711 C 48.911285 10.376712 49.064301 9.0437732 49.144313 8.5597737 C 49.224323 8.0757741 49.230698 7.6808674 49.159938 7.6808674 z " />
    <path
       style="fill:#008000;stroke-width:0.32"
       d="m 85.6856,61.34926 c 0.495091,0.180412 1.445594,-0.931866 2.18984,-2.562551 0.342906,-0.751331 0.715622,-1.151171 0.978899,-1.05014 0.268333,0.102969 0.722327,-0.42329 1.2308,-1.426714 0.443104,-0.874422 0.924103,-1.589859 1.068887,-1.589859 0.477283,0 1.005974,-1.605587 1.005974,-3.055056 0,-0.838556 0.147514,-1.424944 0.358461,-1.424944 0.532045,0 0.190227,-3.834834 -0.381991,-4.285538 -0.251059,-0.197748 -0.807449,-1.05553 -1.236422,-1.906189 -0.858576,-1.70256 -0.685002,-2.52343 0.573165,-2.710598 0.671485,-0.09989 1.646787,0.574892 1.646787,1.139363 0,0.277139 1.080643,2.750912 1.531424,3.505686 1.289741,2.15951 3.406576,4.901731 3.699786,4.792825 0.202835,-0.07534 0.830889,0.299872 1.395676,0.833802 0.871104,0.82351 1.103134,0.9075 1.529474,0.553667 0.40981,-0.340106 0.66331,-0.341555 1.37312,-0.0079 1.17584,0.552797 2.37152,0.672576 2.83921,0.284426 0.26185,-0.217309 0.67472,-0.171876 1.28832,0.141766 0.49664,0.253862 1.3463,0.556928 1.88812,0.673481 0.81733,0.175818 1.08918,0.07336 1.59595,-0.601459 0.54786,-0.729532 0.83195,-0.813376 2.75599,-0.813376 1.17984,0 2.23476,-0.144982 2.34428,-0.322182 0.10952,-0.177203 -0.0746,-0.717203 -0.40904,-1.2 -0.82396,-1.189293 -1.06574,-1.939382 -0.69834,-2.166454 0.52778,-0.326183 0.34128,-0.777447 -0.78801,-1.906736 -0.69873,-0.698736 -1.03899,-1.30456 -0.94168,-1.676669 0.11491,-0.43943 -0.20407,-0.755792 -1.29783,-1.287184 -0.98182,-0.477004 -1.51569,-0.965552 -1.65301,-1.512665 -0.11155,-0.444445 -0.4145,-0.808093 -0.67323,-0.808093 -0.25872,0 -1.02376,-0.558915 -1.70008,-1.242032 -0.90214,-0.9112 -1.68389,-1.348221 -2.9349,-1.6407 -1.63667,-0.382644 -2.82523,-1.075469 -2.82523,-1.646864 0,-0.14872 0.27915,-0.549549 0.62032,-0.890727 0.77114,-0.771132 2.83629,-0.649635 4.11725,0.242231 1.20026,0.835673 3.86991,1.380675 7.26243,1.482601 3.90583,0.117351 5.05462,-0.06813 4.86694,-0.785801 -0.12202,-0.466615 0.14607,-0.594432 1.60695,-0.766128 2.0009,-0.235168 2.96611,-0.657687 2.96611,-1.298413 0,-0.243824 0.468,-0.540874 1.04,-0.660115 0.572,-0.119239 1.65856,-0.572592 2.41457,-1.007453 1.05,-0.603958 1.33019,-0.930484 1.18663,-1.382819 -0.1316,-0.41464 0.008,-0.654494 0.46716,-0.800083 0.3603,-0.114356 1.09241,-0.575898 1.62691,-1.025648 0.90294,-0.759775 0.93536,-0.85801 0.45742,-1.386119 -0.63115,-0.697421 -0.55654,-0.743443 2.33655,-1.441192 3.57859,-0.863075 3.49793,-1.490403 -0.30625,-2.381726 -1.9144,-0.448546 -2.36119,-0.671317 -2.44247,-1.217841 -0.0691,-0.464594 -0.41117,-0.728862 -1.12,-0.865283 -3.24931,-0.62535 -4.00655,-0.884937 -4.14688,-1.421585 -0.15142,-0.579028 -1.61536,-0.973687 -3.63808,-0.980779 -0.75904,-0.0027 -0.99359,-0.140345 -0.96,-0.563522 0.0362,-0.455711 -0.31312,-0.598228 -1.87556,-0.765269 -6.97243,-0.74543 -9.45458,0.106381 -14.34684,4.923474 -2.1844,2.150849 -3.3602,2.362113 -3.862203,0.693953 -0.157376,-0.522962 0.291823,-1.196956 2.070653,-3.106884 1.2494,-1.341474 2.5405,-2.524381 2.86912,-2.62868 0.32862,-0.104301 0.88912,-0.661492 1.24554,-1.238203 0.57785,-0.934967 0.61221,-1.253855 0.31718,-2.943478 -0.91485,-5.2393066 -1.04136,-6.220005 -1.06639,-8.2670535 -0.0325,-2.6576962 -0.37296,-2.8998924 -2.11195,-1.5024092 -1.4028,1.1273269 -1.59511,1.1893605 -1.59511,0.5145504 0,-0.7273741 -0.39841,-0.5881878 -1.834186,0.6407839 -0.720275,0.6165292 -1.514003,1.0422646 -1.764179,0.9462623 -0.272966,-0.1047465 -0.987126,0.402984 -1.786246,1.2699286 -0.836301,0.9072799 -1.507984,1.3767077 -1.806154,1.2622898 -0.32031,-0.1229158 -0.76327,0.2936198 -1.361968,1.2807237 -0.487997,0.804586 -1.057635,1.402953 -1.265862,1.329705 -0.427421,-0.150355 -2.218215,3.332886 -2.442554,4.750969 -0.0801,0.506364 0.05388,1.87431 0.297751,3.03988 0.243868,1.16557 0.443398,2.922938 0.443398,3.905263 0,1.552543 -0.09936,1.839222 -0.76,2.192786 -0.57872,0.309721 -0.922198,0.319934 -1.44,0.04282 -0.374,-0.200159 -0.681142,-0.466859 -0.682538,-0.592667 -0.0013,-0.125807 -0.351347,-1.905084 -0.777673,-3.953948 C 85.5808,17.81163 85.31319,17.109229 84.102326,15.41202 c -0.760278,-1.065647 -1.56191,-1.945303 -1.781404,-1.954791 -0.219492,-0.0095 -0.956948,-0.521253 -1.638784,-1.137253 -0.681837,-0.616 -1.481405,-1.12 -1.776813,-1.12 -0.295408,0 -0.978253,-0.228125 -1.517427,-0.506943 -1.346151,-0.6961213 -4.308397,-1.4388275 -4.873616,-1.2219325 -0.255351,0.097987 -0.763524,0.018003 -1.129277,-0.1777418 -0.823088,-0.4405039 -0.822551,-0.370621 0.0177,2.2917163 l 0.682701,2.163156 -0.760909,0.616147 -0.760909,0.616148 0.717053,1.475913 c 0.564141,1.161168 0.640665,1.598231 0.358845,2.049497 -0.276628,0.442948 -0.234548,0.812719 0.184748,1.62355 0.298628,0.577481 0.464596,1.128327 0.36882,1.224103 -0.291597,0.291597 4.889804,5.904877 6.972486,7.553656 1.074954,0.850999 2.611507,1.883765 3.41456,2.295037 0.803056,0.411272 1.648688,0.975002 1.879184,1.25273 0.968006,1.166374 2.58072,0.197839 2.58072,-1.549882 0,-0.993867 -1.585648,-3.705155 -2.166893,-3.705155 -0.133584,0 -1.129424,-0.843607 -2.212979,-1.874681 -2.89249,-2.752401 -5.223008,-6.650226 -4.312598,-7.21289 0.176316,-0.10897 0.553155,0.506423 0.841251,1.373794 0.287024,0.864152 0.818073,1.909268 1.180105,2.322481 0.362032,0.413213 0.895136,1.046505 1.184679,1.407316 0.289539,0.36081 1.620393,1.541405 2.957453,2.623543 2.159424,1.74771 2.493702,2.166802 2.99206,3.75122 0.531066,1.688388 0.531632,1.82858 0.01062,2.623735 l -0.550416,0.840038 1.354061,-0.181616 c 2.80929,-0.376806 4.064675,-2.514807 5.423882,-9.237218 0.550585,-2.723103 1.163731,-4.828968 1.630502,-5.6 1.860125,-3.072626 4.751139,-6.195721 5.735309,-6.195721 0.66994,0 0.30556,0.59295 -0.74545,1.213062 -0.593126,0.349953 -1.349126,1.022306 -1.680003,1.494118 -0.330873,0.471813 -0.940621,1.243711 -1.354995,1.715331 -1.313286,1.49471 -2.185984,3.653129 -2.610909,6.457488 -0.77919,5.142393 -1.520425,7.206853 -3.303229,9.2 -1.369225,1.530774 1.543738,0.37255 5.067546,-2.014908 3.020672,-2.046575 6.32135,-2.4508 12.90726,-1.580724 3.85051,0.508699 6.22557,0.339003 9.01126,-0.643845 1.75821,-0.620334 2.0262,-0.610815 1.65154,0.05867 -0.32546,0.581555 -4.2178,1.658394 -6.13006,1.695915 -0.616,0.01209 -3.37278,-0.225708 -6.12618,-0.528432 -4.67196,-0.513663 -5.13318,-0.515095 -6.90873,-0.02145 -1.80492,0.501812 -5.269749,2.415375 -7.530005,4.158687 L 92.32,33.842256 93.821754,35.44791 c 0.825964,0.883108 1.918035,2.520602 2.426822,3.638871 1.546378,3.398793 6.237294,6.993215 9.126524,6.993215 0.89292,0 0.94951,0.05253 0.51964,0.482403 -1.56985,1.56985 -9.685444,-4.064054 -10.374692,-7.202191 -0.115997,-0.528115 -0.320291,-0.960211 -0.45399,-0.960211 -0.133703,0 -0.51826,-0.580182 -0.854576,-1.289292 -0.766384,-1.615901 -2.932215,-3.057117 -5.062602,-3.368826 -1.350778,-0.197641 -1.544144,-0.159581 -1.378765,0.271395 0.761677,1.98489 0.633008,2.615101 -1.030275,5.046202 -2.014973,2.945142 -2.89984,5.640508 -2.89984,8.833113 0,1.508633 -0.1176,2.312499 -0.32,2.187407 -0.492134,-0.304156 -0.383722,-5.33893 0.147376,-6.84422 0.257059,-0.728579 0.471878,-1.430681 0.477382,-1.560233 0.0055,-0.129549 0.227181,-0.489191 0.492624,-0.799203 0.26544,-0.310013 0.482618,-0.635258 0.482618,-0.722772 0,-0.08751 0.42239,-0.742204 0.938643,-1.454873 1.169245,-1.614093 1.50217,-3.005549 0.961047,-4.016649 -0.486096,-0.908279 -1.560468,-0.996138 -2.470672,-0.202048 -0.587018,0.512131 -3.632532,3.964319 -4.163975,4.719999 -2.222854,3.160768 -3.034144,5.345513 -3.076729,8.285411 -0.02531,1.746608 0.03591,1.943517 0.575296,1.850547 0.501203,-0.08639 0.562083,0.02218 0.358851,0.64 -0.350032,1.064057 -0.372423,2.654784 -0.03824,2.71671 0.515894,0.0956 0.825904,0.889718 0.830877,2.128368 0.006,1.493523 0.53432,2.569869 1.146179,2.335078 0.301482,-0.115689 0.510541,0.11601 0.627251,0.695181 0.433795,2.15271 0.635539,2.470717 1.527933,2.408461 0.581981,-0.0406 0.863536,0.09667 0.863536,0.421036 0,0.264704 0.15631,0.773351 0.347357,1.130323 0.345619,0.645792 0.350825,0.645892 1.04,0.01968 0.380953,-0.34614 0.875165,-0.562838 1.098243,-0.481545 z"
       id="path3466" />
    <path
       id="path3482"
       style="display:inline;fill:#ff8080;stroke-width:0.32"
       d="M 42.507594 36.800008 C 38.490888 36.800008 36.317679 38.011713 34.290798 41.385946 C 33.024886 43.493367 32.580878 46.452699 33.372829 47.503133 C 33.805455 48.076966 33.95208 48.091975 35.241969 47.698446 C 37.431756 47.030373 39.808406 47.254632 41.941188 48.331258 C 42.959434 48.845268 43.877352 49.401096 43.980251 49.567586 C 44.083147 49.734075 44.872724 49.183989 45.734157 48.34493 C 46.79949 47.307261 47.783539 46.685149 48.810329 46.397664 L 50.320094 45.973836 L 50.159938 43.983602 C 49.81368 39.669952 46.756323 36.800008 42.507594 36.800008 z M 55.046657 37.717977 C 53.826838 37.750013 52.435686 38.037159 51.310329 38.569539 C 50.369347 39.014694 49.599391 39.451548 49.599391 39.540242 C 49.599391 39.628932 49.960173 40.412181 50.400173 41.280477 C 50.903686 42.274114 51.200954 43.396754 51.200954 44.309774 C 51.200954 45.332711 51.331628 45.760946 51.644313 45.760946 C 51.888194 45.760946 52.49957 45.974592 53.003688 46.237508 C 54.179616 46.850796 54.46184 46.840764 55.228298 46.159383 C 56.431627 45.089621 57.930237 44.443546 59.441188 44.339071 C 60.276906 44.281281 61.000605 44.143266 61.050563 44.034383 C 61.100513 43.925496 61.042772 43.089709 60.921657 42.176961 C 60.703922 40.535616 59.654872 39.040242 58.722438 39.040242 C 58.511417 39.040242 58.078104 38.751617 57.759548 38.399617 C 57.315063 37.908468 56.266476 37.68594 55.046657 37.717977 z M 29.825954 37.956258 C 27.506855 37.922002 25.262541 39.500377 23.980251 42.364461 C 23.663397 43.072176 23.459563 43.741471 23.527126 43.850789 C 23.594686 43.960108 24.413042 43.948629 25.345485 43.825399 C 27.70525 43.513582 28.981457 43.722809 30.339626 44.645711 C 30.982044 45.082245 31.595621 45.440633 31.702907 45.440633 C 31.810193 45.440633 32.077768 44.827304 32.296657 44.079305 C 32.515547 43.331306 32.969453 42.243397 33.306423 41.661336 C 34.135632 40.229012 34.083881 39.841099 32.950954 39.034383 C 31.949114 38.321011 30.88009 37.971829 29.825954 37.956258 z M 19.087673 43.200399 C 18.462935 43.200399 17.207775 43.358932 16.29861 43.553914 C 13.726699 44.105491 11.200954 46.697902 11.200954 48.784383 C 11.200954 49.569253 11.276996 49.60057 13.200954 49.624227 C 14.300953 49.637767 15.776251 49.839474 16.480251 50.071492 C 18.52005 50.743758 18.658686 50.681939 19.585719 48.716024 C 20.062066 47.705856 20.889911 46.419106 21.425563 45.856649 C 21.961216 45.294195 22.400173 44.699875 22.400173 44.534383 C 22.400173 44.042119 20.310239 43.200399 19.087673 43.200399 z M 26.566188 44.516805 C 23.436705 44.530655 21.436474 46.052444 20.013454 49.458211 C 19.361519 51.018511 19.390297 51.772363 20.177516 53.639852 C 20.539353 54.498225 20.980155 55.548237 21.156032 55.973836 C 21.474631 56.744808 21.48097 56.742099 23.050563 55.122274 C 24.319398 53.812832 24.942856 53.427948 26.249782 53.147664 C 27.142261 52.956259 28.290119 52.800008 28.802516 52.800008 C 29.797946 52.800008 29.80502 52.794608 31.515407 50.477742 C 32.808779 48.725754 32.803846 48.749067 32.134548 47.40743 C 31.235041 45.604325 29.636962 44.671698 27.206813 44.534383 C 26.987986 44.522018 26.77482 44.515882 26.566188 44.516805 z M 59.597438 45.081258 C 58.653089 45.082392 57.624909 45.418583 56.560329 46.087117 C 55.72433 46.612096 55.040798 47.150184 55.040798 47.28243 C 55.040798 47.41468 55.471782 47.930569 55.999782 48.428914 C 56.527781 48.927263 56.977782 49.465099 56.999782 49.62618 C 57.021762 49.787258 57.066991 50.027383 57.099391 50.159383 C 57.131791 50.291383 57.270913 51.012946 57.407985 51.760946 C 57.671572 53.19935 57.86513 53.366736 58.513454 52.71993 C 58.784282 52.449735 59.999385 52.323119 62.257594 52.329305 L 65.599391 52.339071 L 65.599391 51.184774 C 65.599391 50.107335 63.973825 47.040242 63.402126 47.040242 C 63.281938 47.040242 62.708727 46.607304 62.130641 46.079305 C 61.401058 45.412933 60.541787 45.080124 59.597438 45.081258 z M 51.132594 46.729696 C 49.487694 46.710716 46.797573 47.96858 45.812282 49.217977 C 44.97147 50.284168 44.867685 50.686174 44.743923 53.321492 L 44.607204 56.241414 L 47.240016 56.077352 C 49.695605 55.924155 49.979573 55.973731 51.417751 56.807821 C 52.266217 57.2999 53.302705 57.966291 53.722438 58.290242 C 54.142173 58.614194 54.537625 58.880086 54.599391 58.880086 C 54.661161 58.880086 55.072142 58.334068 55.513454 57.667196 C 56.917461 55.545598 57.009413 50.492842 55.671657 48.950399 C 54.870666 48.026851 52.246504 46.742538 51.132594 46.729696 z M 37.794704 48.053914 C 35.092026 48.030087 32.590716 49.443908 31.29861 51.964071 C 30.751128 53.0319 30.690125 53.577588 30.868923 55.803914 C 31.171222 59.568042 31.443692 60.074879 33.73611 61.159383 C 35.020983 61.767235 36.190899 62.079138 37.187282 62.079305 C 38.669731 62.079554 38.718403 62.048783 39.980251 60.190633 C 40.686263 59.150982 41.663582 58.000428 42.152126 57.633992 C 42.640669 57.267561 43.214404 56.820228 43.427516 56.641805 C 43.679459 56.430877 43.808775 55.338752 43.796657 53.518758 C 43.774897 50.248358 43.570736 49.902943 40.999782 48.762899 C 39.940669 48.293255 38.852273 48.063238 37.794704 48.053914 z M 12.409938 50.432821 C 11.020244 50.414919 10.387959 50.824976 9.2790788 51.936727 C 7.123512 54.097877 6.3242837 56.046242 6.2947038 59.200399 C 6.2704928 61.782034 6.793531 63.216707 8.4939226 65.237508 C 9.511511 66.446844 9.8106988 66.470798 11.001735 65.446492 C 12.606426 64.066439 15.21916 63.262216 18.240016 63.216024 L 20.960719 63.173055 L 21.036891 60.098836 C 21.095951 57.716292 21.012627 56.987035 20.667751 56.854696 C 20.191031 56.671759 18.880641 53.483643 18.880641 52.507039 C 18.880641 51.530317 18.109574 51.182045 14.890407 50.698446 C 13.829156 50.539018 13.041618 50.440958 12.409938 50.432821 z M 62.208766 52.923055 C 61.867109 52.924659 61.506148 52.94281 61.120876 52.975789 C 58.475064 53.202262 57.779587 53.664882 57.312282 55.520711 C 57.106861 56.336518 56.567706 57.566126 56.113063 58.253133 C 55.46684 59.229647 55.341946 59.697138 55.538844 60.391805 C 55.677369 60.880524 55.87265 62.647542 55.974391 64.319539 L 56.159938 67.360555 L 57.279079 67.557821 C 59.10564 67.880528 59.508285 67.861182 60.415798 67.409383 C 60.891058 67.172779 62.000642 66.791378 62.880641 66.561727 C 64.941634 66.023871 65.655938 65.354307 66.745876 62.934774 C 67.927481 60.31174 67.965665 57.726316 66.859157 55.493367 C 65.963454 53.685829 64.600368 52.911825 62.208766 52.923055 z M 28.503688 53.473836 C 26.422909 53.463529 23.273386 55.362096 22.513454 57.180867 C 21.741814 59.027663 21.700691 62.631475 22.435329 64.071492 C 22.774554 64.73643 23.277607 65.280477 23.552516 65.280477 C 23.827425 65.280477 24.76643 64.5698 25.638454 63.702352 C 27.205999 62.143025 29.457067 60.800008 30.501735 60.800008 C 31.126303 60.800008 31.183551 60.387705 30.689235 59.464071 C 30.496494 59.10393 30.173744 57.636591 29.970485 56.204305 C 29.645204 53.912173 29.515992 53.588326 28.904079 53.50118 C 28.775884 53.482923 28.642407 53.474523 28.503688 53.473836 z M 47.931423 56.964071 C 44.729285 56.969671 43.716325 57.248796 42.316188 58.514852 C 40.520549 60.13854 39.659543 62.02052 39.450954 64.778524 C 39.138653 68.907842 40.309681 71.411638 43.306423 73.026571 C 44.585365 73.71579 47.457172 73.759952 49.320094 73.118367 C 52.002272 72.194637 53.759548 71.042368 53.759548 70.210164 C 53.759548 69.991512 53.867782 69.764926 53.999782 69.706258 C 54.131782 69.647588 54.484769 69.0687 54.784938 68.419149 C 55.218637 67.48065 55.29771 66.659296 55.165798 64.419149 C 54.943625 60.646144 54.837545 60.238705 53.827907 59.300008 C 52.197628 57.784279 50.117743 56.960241 47.931423 56.964071 z M 31.277126 61.503133 C 30.947353 61.522051 30.592044 61.598726 30.116969 61.725789 C 28.280269 62.217034 25.499735 64.331503 24.827907 65.747274 C 24.395834 66.657801 24.371212 67.197697 24.665798 69.329305 C 25.074526 72.286844 25.603885 74.559774 25.882594 74.559774 C 25.991798 74.559774 26.710923 75.136003 27.482204 75.841024 C 28.253484 76.546043 29.333955 77.263198 29.882594 77.432821 C 31.403026 77.902887 34.849308 77.596655 36.480251 76.846883 C 39.218162 75.588219 40.352882 72.803133 39.333766 69.841024 C 38.923274 68.647902 38.720485 67.187325 38.720485 65.417196 L 38.720485 62.774617 L 36.720485 62.630086 C 35.620486 62.551016 34.01434 62.226829 33.152126 61.909383 C 32.306068 61.597887 31.826746 61.471603 31.277126 61.503133 z M 21.279079 63.942586 L 18.07986 64.069539 C 15.414342 64.17502 14.611838 64.334898 13.279079 65.026571 C 12.39908 65.483271 11.360536 66.199936 10.970485 66.618367 C 8.6556042 69.101687 8.6683149 75.34433 10.991969 76.971883 C 11.360186 77.22979 11.711095 77.440633 11.771266 77.440633 C 11.831436 77.440633 12.941364 76.365602 14.238063 75.051961 C 15.534763 73.738317 16.969104 72.570331 17.42361 72.456258 C 18.32031 72.231199 21.994005 72.453765 23.48611 72.823446 C 24.378677 73.044584 24.404425 73.018745 24.185329 72.12618 C 24.060296 71.616813 23.876193 70.270968 23.777126 69.135946 C 23.627461 67.421221 23.40198 66.807409 22.439235 65.507039 L 21.279079 63.942586 z M 65.409938 66.768758 C 65.185795 66.779253 64.952518 66.879185 64.603298 67.059774 C 64.113273 67.313175 62.984278 67.675803 62.095485 67.866414 C 61.206693 68.057029 60.480251 68.374457 60.480251 68.571492 C 60.480251 68.768529 60.947314 69.412593 61.519313 70.003133 L 62.560329 71.077352 L 62.560329 74.499227 C 62.560329 76.996372 62.41167 78.281082 62.011501 79.257039 C 61.373034 80.814181 61.464231 80.897366 63.853298 80.934774 C 65.343289 80.958104 65.568954 80.856784 66.79861 79.600789 C 68.426989 77.937528 69.028929 76.555379 69.306423 73.846883 C 69.625744 70.730115 68.689059 68.541516 66.45486 67.182821 C 65.97034 66.888166 65.698122 66.755264 65.409938 66.768758 z M 56.165798 68.596883 C 55.6306 68.61623 55.489617 68.878066 55.070094 69.700399 C 54.22895 71.349181 51.844233 73.4802 50.525173 73.760946 C 49.003424 74.084829 48.386809 74.737051 47.82986 76.612508 C 46.593813 80.774725 49.093815 84.111161 53.472438 84.145711 C 54.458171 84.153511 55.753079 83.996406 56.351344 83.796102 C 57.871365 83.287177 59.403652 82.08363 60.351344 80.651571 C 61.287371 79.237134 62.204572 74.451249 61.900173 72.569539 C 61.539988 70.342991 59.978965 69.053756 57.202907 68.690633 C 56.73349 68.629231 56.409069 68.588089 56.165798 68.596883 z M 8.1599382 71.682821 L 7.1443132 72.300008 C 5.9088066 73.053597 4.477214 75.408714 4.2575944 77.046102 C 3.9705566 79.186128 4.6330096 80.742406 6.5915788 82.53243 C 7.5710709 83.427629 8.4730056 84.159383 8.5974382 84.159383 C 8.721871 84.159383 9.5056371 83.468965 10.337673 82.624227 C 11.718213 81.222612 11.830114 80.992686 11.630641 79.995321 C 11.510421 79.39422 10.771006 78.076355 9.9861101 77.065633 C 8.8201733 75.564243 8.5218669 74.902463 8.3591569 73.454305 L 8.1599382 71.682821 z M 40.818141 72.423055 C 40.767048 72.420483 40.706407 72.438905 40.640407 72.479696 C 40.464407 72.588469 40.320094 73.011088 40.320094 73.419149 C 40.320094 73.827212 40.119291 74.327552 39.874782 74.530477 C 39.078146 75.191627 39.071022 76.397476 39.859157 77.137899 C 40.873709 78.091021 41.732466 81.7577 41.511501 84.194539 C 41.348137 85.996137 41.381297 86.113121 42.189235 86.551961 C 43.310617 87.161049 44.016161 87.151773 45.825954 86.503133 C 46.654033 86.206342 47.806581 85.552638 48.386501 85.050008 C 49.329994 84.232265 49.382045 84.102443 48.886501 83.815633 C 48.581915 83.639348 47.953709 82.847099 47.490016 82.055867 C 46.437189 80.259357 46.268147 77.241062 47.126735 75.550008 C 47.430882 74.950969 47.679469 74.411749 47.679469 74.350789 C 47.679469 74.289829 46.964977 74.239461 46.091579 74.239461 C 44.415788 74.239461 40.960719 73.134974 40.960719 72.598836 C 40.960719 72.490249 40.903297 72.427342 40.818141 72.423055 z M 20.105251 73.053914 C 19.1892 73.052837 18.387659 73.294686 17.427516 73.780477 C 15.408501 74.802005 12.933302 77.276243 12.599391 78.606649 C 12.298793 79.804327 13.516545 83.278828 14.806423 84.90743 C 15.344562 85.586885 16.444399 86.569592 17.251735 87.089071 C 18.592034 87.951482 18.896765 88.018099 20.761501 87.864461 C 21.884735 87.771921 23.422884 87.397742 24.177516 87.03243 C 25.593198 86.347113 26.928743 84.885646 27.345485 83.567586 C 27.821575 82.061822 28.064456 79.202678 27.796657 78.253133 C 27.376815 76.764483 25.006009 74.319876 23.466579 73.788289 C 22.05169 73.299707 21.021301 73.054991 20.105251 73.053914 z M 37.866969 77.163289 C 37.46909 77.153687 37.034684 77.319163 36.540798 77.653524 C 35.857486 78.116124 35.051637 78.238312 32.640407 78.239461 C 30.968409 78.240101 29.394515 78.167306 29.14236 78.079305 C 28.764719 77.94751 28.697986 78.37671 28.76736 80.508992 C 28.86021 83.362807 28.351291 85.11578 27.224391 85.819539 C 26.298799 86.397584 26.386762 86.847382 27.718532 88.321492 C 28.87123 89.597391 30.875941 90.496202 32.640407 90.530477 C 33.080406 90.538977 34.447471 90.192516 35.679469 89.760946 C 38.370766 88.818181 39.987244 87.303277 40.025173 85.684774 C 40.038643 85.110188 40.111863 84.351226 40.189235 83.999227 C 40.617232 82.052096 40.422101 80.096276 39.659938 78.712117 C 39.093179 77.682825 38.530102 77.179292 37.866969 77.163289 z M 61.61111 81.413289 C 60.906654 81.402737 60.649387 81.651207 59.839626 82.559774 C 59.027127 83.471415 58.106195 84.039526 56.482204 84.628133 C 55.250969 85.074392 53.971215 85.440633 53.638454 85.440633 C 53.113795 85.440633 53.151232 85.55643 53.921657 86.319539 C 55.030603 87.417957 55.581218 88.699701 55.865016 90.839071 C 56.138184 92.898326 56.805681 93.440633 59.070094 93.440633 C 60.232615 93.440633 61.140761 93.204886 62.148219 92.641805 C 63.162013 92.075185 63.834969 91.368684 64.466579 90.208211 C 65.283678 88.70693 65.344371 88.355848 65.216579 85.921102 C 65.036935 82.498417 64.58238 81.754584 62.501735 81.495321 C 62.130239 81.449029 61.845929 81.416807 61.61111 81.413289 z M 12.240016 82.005086 C 11.587853 82.069244 9.0137778 84.956226 8.6579851 86.143758 C 7.9499394 88.507004 9.045334 91.600171 11.101344 93.040242 C 12.266155 93.856098 12.742645 94.023262 13.974391 94.053914 C 14.856672 94.075864 15.038826 93.936516 15.355251 92.977742 C 15.555499 92.370982 16.348077 91.188218 17.116969 90.350789 C 18.697362 88.629527 18.729338 88.71383 15.874782 87.204305 C 14.853726 86.66436 14.344162 86.0644 13.532985 84.456258 C 12.96239 83.325063 12.441819 82.255305 12.376735 82.079305 C 12.354981 82.020478 12.307481 81.998449 12.240016 82.005086 z M 50.558376 84.397664 L 49.519313 85.253133 C 48.947544 85.723101 47.832797 86.392823 47.040798 86.741414 C 46.248798 87.090006 45.202427 87.582474 44.716579 87.835164 C 43.939754 88.239196 43.637186 88.23078 42.212673 87.770711 L 40.593532 87.247274 L 39.824001 88.184774 C 38.723177 89.524861 38.372398 91.051093 38.613063 93.440633 C 38.793335 95.230538 38.970424 95.668536 39.890407 96.591024 C 40.478403 97.180623 40.960719 97.767989 40.960719 97.895711 C 40.960719 98.383343 42.446642 99.480569 43.519313 99.784383 C 45.010211 100.20665 47.194592 100.21839 48.950954 99.81368 C 51.660107 99.189425 54.549496 96.349254 55.025173 93.841024 C 55.390935 91.912376 54.706463 88.527711 53.743923 87.503133 C 53.397731 87.13463 53.197291 86.748982 53.29861 86.647664 C 53.399931 86.546345 53.306495 86.354699 53.091579 86.221883 C 52.841896 86.067569 52.783563 86.11471 52.929469 86.350789 C 53.415818 87.137716 52.635381 86.665223 51.622829 85.559774 L 50.558376 84.397664 z M 25.497829 87.387899 C 25.272048 87.386598 24.968788 87.505201 24.538844 87.737508 C 24.154415 87.945223 23.082431 88.292027 22.156032 88.508992 C 19.220425 89.196525 17.918878 90.213468 16.519313 92.90743 C 14.969457 95.890684 15.06354 96.845501 17.140407 99.155477 C 18.647632 100.83188 19.717247 101.34866 22.529079 101.76095 C 25.187289 102.15072 25.627498 102.11384 26.841579 101.39571 C 29.993511 99.531339 30.390551 99.147586 30.880641 97.497274 C 31.536922 95.287337 31.485953 94.447524 30.575954 92.389852 C 29.951807 90.978548 29.607791 90.576904 28.880641 90.417196 C 27.819155 90.184054 26.380782 88.946759 26.083766 88.010946 C 25.950573 87.591292 25.788119 87.389571 25.497829 87.387899 z M 37.353298 90.225789 C 37.21795 90.210689 36.332288 90.422932 35.384548 90.698446 C 34.436808 90.973962 33.072256 91.200399 32.351344 91.200399 C 30.940726 91.200399 30.723674 91.557484 31.472438 92.649617 C 32.225444 93.747943 32.311897 95.705031 31.691188 97.600789 C 31.02295 99.641712 31.161287 99.951579 33.120876 100.84298 C 35.035213 101.71379 37.296637 101.62432 38.605251 100.62618 C 40.389767 99.265066 40.472455 98.803931 39.202907 97.284383 C 37.900995 95.726094 37.346704 93.945383 37.493923 91.796102 C 37.552082 90.94707 37.488642 90.24089 37.353298 90.225789 z M 56.240016 93.862508 C 55.778394 93.874272 55.679469 94.000251 55.679469 94.288289 C 55.679469 95.217737 54.17807 97.393485 52.648219 98.678914 C 51.338045 99.779767 51.222395 99.976399 51.626735 100.43868 C 52.591604 101.54182 53.120876 103.0686 53.120876 104.75704 C 53.120876 105.857 53.26778 106.56571 53.519313 106.6672 C 54.394707 107.02043 55.597097 106.83854 57.152126 106.11446 C 59.697195 104.92939 60.80181 102.89237 60.79861 99.391805 C 60.79671 97.274568 60.400573 95.465278 59.763454 94.663289 C 59.523768 94.361578 58.61375 94.073723 57.519313 93.954305 C 56.924578 93.889411 56.51699 93.85545 56.240016 93.862508 z M 15.136501 98.192586 L 14.296657 99.190633 C 13.382116 100.2775 12.732598 102.23558 12.702907 103.99923 C 12.677597 105.50275 13.931162 108.01481 15.183376 108.96993 C 16.900413 110.27957 20.826335 110.86813 22.419704 110.05587 C 22.92261 109.7995 23.679469 107.19485 23.679469 105.71993 C 23.679469 105.28462 23.901503 104.50016 24.171657 103.97774 C 24.745157 102.86872 24.762116 102.88091 21.866969 102.43087 C 19.370983 102.04288 18.283467 101.47632 16.534938 99.651571 L 15.136501 98.192586 z M 41.115016 100.04415 C 40.696576 100.04088 40.406143 100.24094 39.804469 100.73946 C 38.582762 101.75172 38.541054 101.95639 39.279079 103.3918 C 39.66295 104.13841 39.844772 105.25451 39.857204 106.94454 C 39.878644 109.85929 40.297684 110.79927 41.876735 111.47384 C 43.566483 112.19571 44.121718 112.27601 46.07986 112.09298 C 47.550918 111.95548 48.040756 111.7383 49.062282 110.76485 C 49.734476 110.12429 50.670556 108.91708 51.14236 108.08126 C 51.614165 107.24544 52.108016 106.55995 52.240016 106.55977 C 52.785914 106.55913 52.452305 103.44136 51.759548 102.06759 L 51.040798 100.63985 L 47.200954 100.63009 C 45.088956 100.62409 42.793981 100.4545 42.101344 100.25118 C 41.663175 100.12256 41.366081 100.04611 41.115016 100.04415 z M 30.695094 100.27657 C 30.465398 100.2861 30.244374 100.4307 29.855251 100.68868 C 29.362745 101.0152 28.262037 101.64174 27.409938 102.08126 C 25.188442 103.22715 24.478044 104.35473 24.484157 106.72384 C 24.490657 109.2467 25.506792 110.66807 28.031032 111.69259 C 31.473806 113.0899 33.64247 113.28202 35.452907 112.34884 C 36.105895 112.01226 37.140777 111.21342 37.753688 110.5754 C 38.794148 109.49233 38.876357 109.25358 38.991969 106.96407 C 39.086799 105.08618 38.988838 104.27506 38.572048 103.50118 C 38.068835 102.56676 37.846723 102.46617 35.632594 102.15548 C 33.940634 101.91806 32.874848 101.56539 31.995876 100.95626 C 31.300861 100.47461 30.990418 100.26431 30.695094 100.27657 z M 53.103298 107.72188 L 52.396266 108.66134 C 51.016485 110.49243 48.206432 112.96016 47.501735 112.96016 C 47.115828 112.96016 46.360227 113.04788 45.822048 113.15548 C 44.982647 113.32336 44.878782 113.44932 45.097438 114.03634 C 45.23763 114.41271 45.453179 115.40346 45.575954 116.23946 L 45.79861 117.76095 L 47.464626 117.76095 C 48.443515 117.76095 49.556146 117.52956 50.163844 117.2004 C 51.457529 116.49968 54.008639 113.13504 54.265407 111.7922 C 54.3951 111.11394 54.237376 110.28477 53.781032 109.25313 L 53.103298 107.72188 z M 24.038844 109.62423 L 23.363063 110.4836 C 22.854946 111.12957 22.291898 111.39468 21.091579 111.55391 C 19.232766 111.80049 18.880641 112.25363 18.880641 114.38985 C 18.880641 115.87871 19.966605 118.53494 20.888454 119.30001 C 22.423352 120.57386 25.535745 120.79801 28.378688 119.83907 C 31.254974 118.86889 32.110645 117.95743 32.458766 115.4836 L 32.665798 114.00509 L 31.011501 113.78634 C 28.876089 113.50307 25.887884 111.9897 24.851344 110.66524 L 24.038844 109.62423 z M 39.263454 110.71993 C 39.189754 110.71993 38.613349 111.20671 37.982204 111.80196 C 37.351059 112.3972 36.033338 113.21656 35.054469 113.62227 C 33.678778 114.19247 33.314956 114.48314 33.449001 114.90548 C 33.648101 115.53279 32.789273 117.59451 31.907985 118.60665 C 31.35253 119.24458 31.346022 119.36503 31.810329 120.2629 C 32.420673 121.44318 33.851861 122.49803 35.628688 123.0793 C 37.249906 123.60968 40.34662 123.40999 41.554469 122.69649 C 42.027141 122.41728 42.979009 121.37216 43.671657 120.37423 C 44.722683 118.85998 44.922294 118.3221 44.878688 117.12032 C 44.849948 116.32832 44.629197 115.11004 44.386501 114.41329 C 44.027544 113.38279 43.741885 113.09446 42.853298 112.87032 C 42.252498 112.71878 41.227586 112.17314 40.577907 111.65743 C 39.928228 111.14172 39.337157 110.71993 39.263454 110.71993 z M 30.558376 120.1672 C 30.376531 120.16227 30.124968 120.29134 29.681423 120.52071 C 29.12095 120.81054 27.57785 121.13548 26.251735 121.24337 L 23.839626 121.44063 L 23.745876 123.55977 C 23.661186 125.47529 23.737524 125.77847 24.532985 126.72384 C 26.627347 129.21284 29.245239 129.65327 32.320094 128.03243 C 33.82256 127.24043 34.163223 126.88459 34.644313 125.60665 C 35.25608 123.98161 35.167402 123.52071 34.245876 123.52071 C 33.468308 123.52071 31.78693 122.09385 31.179469 120.91915 C 30.911781 120.4015 30.792176 120.17353 30.558376 120.1672 z M 36.902126 124.33712 C 36.282564 124.34764 35.839626 124.41742 35.839626 124.56759 C 35.839626 124.77147 35.611618 125.53805 35.331813 126.27071 C 34.903731 127.39163 34.515725 127.76053 32.886501 128.60079 C 31.821588 129.15001 30.466059 129.60079 29.874782 129.60079 C 28.610297 129.60079 28.461481 130.23587 29.359157 131.80977 C 30.332798 133.51688 33.355627 134.22427 36.247829 133.4211 C 37.849622 132.97628 39.55679 131.43488 40.331813 129.7336 C 40.953397 128.36914 41.172727 125.61439 40.714626 124.92891 C 40.48237 124.58138 38.265162 124.31396 36.902126 124.33712 z " />
  </g>
</svg>
